<svg width="19" height="20" viewBox="0 0 19 20" fill="none" xmlns="http://www.w3.org/2000/svg">
<path d="M3.72875 3.10465C3.65494 3.03083 3.56731 2.97228 3.47087 2.93233C3.37443 2.89239 3.27106 2.87183 3.16667 2.87183C3.06228 2.87183 2.95892 2.89239 2.86247 2.93233C2.76603 2.97228 2.6784 3.03083 2.60459 3.10465C2.45551 3.25372 2.37177 3.45591 2.37177 3.66673C2.37177 3.87755 2.45551 4.07974 2.60459 4.22882L7.06167 8.6859C6.77968 9.21047 6.67422 9.81194 6.76091 10.4012C6.8476 10.9904 7.12183 11.536 7.54296 11.9571C7.96408 12.3782 8.50969 12.6525 9.09891 12.7392C9.68813 12.8259 10.2896 12.7204 10.8142 12.4384L15.2713 16.8955C15.3449 16.9697 15.4324 17.0286 15.5289 17.0688C15.6254 17.109 15.7288 17.1297 15.8333 17.1297C15.9378 17.1297 16.0413 17.109 16.1378 17.0688C16.2343 17.0286 16.3218 16.9697 16.3954 16.8955C16.4696 16.8219 16.5285 16.7343 16.5687 16.6379C16.6089 16.5414 16.6296 16.4379 16.6296 16.3334C16.6296 16.2289 16.6089 16.1254 16.5687 16.0289C16.5285 15.9325 16.4696 15.8449 16.3954 15.7713L3.72875 3.10465ZM9.5 11.1876C9.18506 11.1876 8.88302 11.0625 8.66032 10.8398C8.43762 10.6171 8.31251 10.315 8.31251 10.0001V9.94465L9.54751 11.1796L9.5 11.1876Z" fill="#5D5D5D"/>
<path d="M9.67418 13.9581C6.27001 14.0373 4.03751 11.1161 3.34085 9.99981C3.8368 9.20869 4.43284 8.48493 5.11418 7.84647L3.95835 6.73022C3.06481 7.57214 2.29934 8.54032 1.68626 9.60398C1.61678 9.72432 1.5802 9.86084 1.5802 9.99981C1.5802 10.1388 1.61678 10.2753 1.68626 10.3956C2.18501 11.2586 4.85293 15.5415 9.51585 15.5415H9.71376C10.5906 15.5155 11.456 15.3359 12.2708 15.0111L11.02 13.7602C10.5801 13.8759 10.1287 13.9423 9.67418 13.9581Z" fill="#5D5D5D"/>
<path d="M17.3137 9.60429C16.8071 8.72554 14.0125 4.31596 9.28624 4.45846C8.40943 4.48446 7.54397 4.66399 6.72916 4.98887L7.97999 6.23971C8.41986 6.12399 8.87126 6.05761 9.32582 6.04179C12.7221 5.95471 14.9546 8.88387 15.6592 10.0001C15.151 10.7936 14.5415 11.5175 13.8462 12.1535L15.0417 13.2697C15.9464 12.43 16.7226 11.4617 17.3454 10.396C17.4101 10.2728 17.4413 10.1349 17.4357 9.99587C17.4302 9.8569 17.3881 9.72183 17.3137 9.60429Z" fill="#5D5D5D"/>
</svg>
